<svg width="476" height="396" viewBox="0 0 476 396" fill="none" xmlns="http://www.w3.org/2000/svg">
<path d="M-41.9983 -153.146C95.8299 -150.344 206.957 -37.5123 206.957 101.299C206.957 240.111 96.0842 352.943 -41.9983 355.745V-153.146Z" fill="#E6E4E3"/>
<path d="M-41.9983 213.113H120.242V519.517H-41.9983V213.113Z" fill="#82A7C2"/>
<path d="M120.242 82.4514H248.152V519.517H120.242V82.4514Z" fill="#537B97"/>
<path d="M135.695 103.78H159.653V132.761H135.695V103.78Z" fill="#F5F5F5"/>
<path d="M169.636 103.78H193.595V132.761H169.636V103.78Z" fill="#F5F5F5"/>
<path d="M180.765 519.517H120.242V213.113L180.765 274.241V519.517Z" fill="#2C4455"/>
<path d="M308.675 519.517H248.153V82.4514L308.675 143.579V519.517Z" fill="#2C4455"/>
<path d="M380.641 328.747L440.909 389.875V519.517H380.641V328.747Z" fill="#2C4455"/>
<path d="M51.5827 257.686H75.9951V454.823H51.5827V257.686Z" fill="#F5F5F5"/>
<path d="M212.043 328.747H380.641V519.517H212.043V328.747Z" fill="#82A7C2"/>
</svg>
